<svg xmlns="http://www.w3.org/2000/svg" viewBox="0 0 96 96">
  <defs>
    <linearGradient id="g" x1="20" y1="8" x2="74" y2="88" gradientUnits="userSpaceOnUse">
      <stop stop-color="#5BB8E8"/>
      <stop offset=".5" stop-color="#1687C7"/>
      <stop offset="1" stop-color="#0D153A"/>
    </linearGradient>
  </defs>
  <path d="M48 7 82 25v38L48 89 14 63V25L48 7Z" fill="url(#g)"/>
  <g stroke="#fff" stroke-width="4" stroke-linecap="round" stroke-linejoin="round">
    <path d="M48 7v82M14 25l68 38M82 25 14 63M25 19l57 6M14 25l57 51M25 77l57-52M14 63l57 13"/>
    <path d="M31 32h34M31 64h34M22 44l26-15 26 15M22 52l26 15 26-15"/>
  </g>
  <g fill="#fff">
    <circle cx="48" cy="7" r="4"/>
    <circle cx="14" cy="25" r="4"/>
    <circle cx="82" cy="25" r="4"/>
    <circle cx="14" cy="63" r="4"/>
    <circle cx="82" cy="63" r="4"/>
    <circle cx="48" cy="89" r="4"/>
    <circle cx="48" cy="48" r="5"/>
  </g>
</svg>
